# xmcd
#
# Track frame offsets: 
#        150
#        15396
#        31956
#        54546
#        69898
#        96021
#        120376
#        141184
#        158134
#        178991
#        194863
#        204821
#        226367
#        240219
#        272310
#        297707
#        318325
#
# Disc length: 4485 seconds
#
# Revision: 0
# Processed by: cddbd v1.5.2PL0 Copyright (c) Steve Scherf et al.
# Submitted via: ExactAudioCopyFreeDBPlugin 1.0
#
DISCID=e6118311
DTITLE=Chris Rea - Dancing With Strangers
DYEAR=2019
DGENRE=Blues
TTITLE0=Yes I Do (B Side)
TTITLE1=Que Sera (Single Version, Re-recorded '88)
TTITLE2=Se Sequi (B Side)
TTITLE3=I'm Taking The Day Out (B Side)
TTITLE4=I Can Hear Your Heartbeat (Extended Mix)
TTITLE5=Loving You Again (Live Version)
TTITLE6=Danielle's Breakfast (12'' B Side)
TTITLE7=On The Beach (Summer '88) (Single Version)
TTITLE8=Rudolphs Rotor Arm (Previously Unreleaesed)
TTITLE9=Smile (The Christmas EP)
TTITLE10=I Don't Care Anymore (B Side)
TTITLE11=Que Sera (Down Under Mix)
TTITLE12=Donahue's Broken Wheel (B Side)
TTITLE13=Let's Dance (The Remix)
TTITLE14=Josephine (French Re-record, B Side)
TTITLE15=Footsteps In The Snow (The Christmas EP)
TTITLE16=Driving Home For Christmas (Second Version from 'New Light Fr
TTITLE16=om Old Windows')
EXTD=
EXTT0=
EXTT1=
EXTT2=
EXTT3=
EXTT4=
EXTT5=
EXTT6=
EXTT7=
EXTT8=
EXTT9=
EXTT10=
EXTT11=
EXTT12=
EXTT13=
EXTT14=
EXTT15=
EXTT16=
PLAYORDER=
